<svg xmlns="http://www.w3.org/2000/svg" xml:space="preserve" viewBox="0 0 1080 1080">
  <circle r="35" fill="#fff" transform="translate(540 540) scale(15.25)"
          vector-effect="non-scaling-stroke"/>
    <path fill="#494c4e"
          d="M540 .6C241.766.6 0 242.366 0 540.6a519.24 519.24 0 0 0 3 55.2c29.077 274.695 260.77 483.158 537 483.158s507.923-208.463 537-483.158a519.24 519.24 0 0 0 3-55.2c0-298.234-241.766-540-540-540zm325.2 805.2c-.6 0-3.6 4.8-4.2 4.8-79.515 95.057-197.07 149.983-321 149.983S298.515 905.657 219 810.6c-.6 0-3.6-4.8-4.2-4.8a30.72 30.72 0 0 1-5.4-16.2 31.32 31.32 0 0 1 20.4-28.8c44.4-15 87-29.4 99-32.4a9.6 9.6 0 0 1 1.8-7.8 29.4 29.4 0 0 1 25.8-21.6l76.2-6a124.62 124.62 0 0 0-11.4-47.4v-.6a168.84 168.84 0 0 0-27-46.8 229.8 229.8 0 0 1-47.4-142.8c-6.903-110.326 75.82-205.858 186-214.8h14.4c110.18 8.942 192.903 104.474 186 214.8a229.8 229.8 0 0 1-47.4 142.8 168.84 168.84 0 0 0-27 46.8v.6a124.62 124.62 0 0 0-11.4 47.4l76.2 6a29.4 29.4 0 0 1 25.8 21.6 9.6 9.6 0 0 1 1.8 7.8c12 3 54.6 17.4 99 32.4a29.4 29.4 0 0 1 15 45z"/>
</svg>
