<svg xmlns="http://www.w3.org/2000/svg" xml:space="preserve" viewBox="0 0 120.006 84.563">
  <path fill="#f7c708" d="M115.248 9.935a25.725 25.725 0 0 0-8.31.077A18.815 18.815 0 0 0 93.376.25a18.807 18.807 0 0 0-15.98 4.896 20.558 20.558 0 0 0-4.888 6.203 5.566 5.566 0 0 1-1.968 2.184 21.459 21.459 0 0 1-3.46 1.47 73.044 73.044 0 0 0-8.732 4.074c-8.766 4.774-16.97 10.467-25.259 15.998a45.173 45.173 0 0 1-7.576 4.193c-.19.086-.457.19-.433.448.057.338.415.485.677.646v.006a12.011 12.011 0 0 0 5.111.99 4.125 4.125 0 0 1-1.405 1.72 27.258 27.258 0 0 1-3.54 1.911c-6.194 3.017-12.269 6.266-18.262 9.658a49.236 49.236 0 0 0-5.757 3.591 4.533 4.533 0 0 0-1.89 2.598.815.815 0 0 0 .162.656.816.816 0 0 0 .595.315 6.432 6.432 0 0 0 3.382-.787 66.678 66.678 0 0 0 5.838-3.487 6.598 6.598 0 0 1 1.138-.072 22.399 22.399 0 0 0-6.194 5.156 4.293 4.293 0 0 0-.947 2.354.997.997 0 0 0 1.042.877 7.989 7.989 0 0 0 3.202-.715 78.523 78.523 0 0 0 10.029-5.746 122.99 122.99 0 0 1 7.562-4.193 50.298 50.298 0 0 1 7.025-3.025 9.91 9.91 0 0 1 4.784-.529 5.605 5.605 0 0 1 2.315 1.253 72.644 72.644 0 0 0 6.613 4.588 61.783 61.783 0 0 0 7.062 3.806c.17.072.323.177.441.315a1587.07 1587.07 0 0 0 8.9 11.249c1.14 1.443 2.335 2.84 3.454 4.297h.01a1.085 1.085 0 0 1-.354 1.591 32.028 32.028 0 0 0-2.466 1.671 6.069 6.069 0 0 0-2.191 2.521 1.293 1.293 0 0 0 .146 1.349c.344.376.911.29 1.364.228h.01a13.111 13.111 0 0 0 3.716-1.715 25.827 25.827 0 0 0 2.749-1.896 1.772 1.772 0 0 1 1.715-.358 107.08 107.08 0 0 0 12.686 3.33 8.143 8.143 0 0 0 1.615.13c.325-.081.105-.434.05-.635h-.01a7.417 7.417 0 0 0-3.298-3.386 26.917 26.917 0 0 0-3.844-1.32 1.68 1.68 0 0 1 1.763-.719c2.586.767 5.155 1.605 7.761 2.31a28.259 28.259 0 0 0 4.53 1c.357.062.362-.423.253-.643a6.488 6.488 0 0 0-2.44-2.901 11.967 11.967 0 0 0-3.024-1.238 835.742 835.742 0 0 1-7.59-2.54 17.026 17.026 0 0 1-1.768-1.863 740.76 740.76 0 0 0-7.117-7.865 46.446 46.446 0 0 0 10.462-2.177 32.196 32.196 0 0 0 6.66-3.225 33.384 33.384 0 0 0 15.083-23.198c.39-2.878.476-5.784.263-8.676a19.275 19.275 0 0 1 .095-3.887 11.874 11.874 0 0 1 3.254-6.68 13.409 13.409 0 0 1 5.549-3.254 33.78 33.78 0 0 1 7.957-1.505 11.152 11.152 0 0 0-4.75-1.664zM74.924 74.25c.21.233.305.553.256.862a1.05 1.05 0 0 1-.494.753 9.281 9.281 0 0 1-1.83 1.101c-.643-.244-1.405-.339-1.824-.944-3.549-4.121-7.132-8.213-10.672-12.339a38.04 38.04 0 0 0 5.456.582c3.04 3.325 6.027 6.693 9.104 9.985zm24.112-63.088a2.073 2.073 0 0 1-.647 1.457 2.061 2.061 0 0 1-2.94-.095 2.061 2.061 0 0 1-.548-1.5 2.014 2.014 0 0 1 1.378-1.92 2.108 2.108 0 0 1 1.91.309c.547.41.866 1.062.847 1.749z"/>
</svg>
