<svg xmlns="http://www.w3.org/2000/svg" xml:space="preserve" viewBox="0 0 512 105">
  <g stroke-width=".673" font-family="Average Sans" font-size="96" letter-spacing="8.3"
     text-anchor="middle">
    <path fill="#635003" d="M613.464 565.058h-6.144l12.192-17.664 6.912 5.184z"
          style="line-height:1;-inkscape-font-specification:&quot;Average Sans, Normal&quot;;text-align:center"
          transform="translate(-580.516 -810.816) scale(1.4867)"/>
      <path fill="#f7c708"
            d="M619.512 588.098v-4.224q0-7.776-8.064-7.776-6.336 0-13.248 4.128l-2.784-5.76q8.064-5.088 17.376-5.088 6.528 0 10.656 3.36 4.224 3.264 4.224 10.176v31.392h-5.184l-2.4-5.76q-3.072 3.168-7.296 5.088-4.224 1.824-7.68 1.824-5.952 0-9.504-3.264-3.552-3.264-3.552-8.544 0-15.552 27.456-15.552zm-15.936 9.312q-1.824 1.632-2.496 2.976-.576 1.248-.576 3.36 0 2.016 1.728 3.552 1.824 1.44 4.704 1.44 6.048 0 12.576-5.376v-9.6q-12.096.192-15.936 3.648zm-39.116-26.88h8.16v43.776h-8.16z"
            style="line-height:1;-inkscape-font-specification:&quot;Average Sans, Normal&quot;;text-align:center"
            transform="translate(-580.516 -810.816) scale(1.4867)"/>
      <path fill="#635003"
            d="M572.236 560.258q-1.536 1.536-3.744 1.536t-3.744-1.536q-1.536-1.632-1.536-3.84t1.536-3.744q1.632-1.632 3.744-1.632t3.648 1.632q1.632 1.536 1.632 3.744t-1.536 3.84z"
            style="line-height:1;-inkscape-font-specification:&quot;Average Sans, Normal&quot;;text-align:center"
            transform="translate(-580.516 -810.816) scale(1.4867)"/>
      <path fill="#f7c708"
            d="M521.312 608.93q7.2 0 11.136-4.896 3.936-4.896 3.936-11.808t-3.456-11.04q-3.456-4.224-8.928-4.224-5.376 0-11.52 3.264v26.976q4.512 1.728 8.832 1.728zm-8.832-63.552v28.704q7.296-4.128 14.688-4.128 7.488 0 12.48 6.048 4.992 5.952 4.992 15.648t-5.856 16.8q-5.76 7.008-16.512 7.008-8.256 0-17.664-4.224v-65.856zm-37.484 42.72v-4.224q0-7.776-8.064-7.776-6.336 0-13.248 4.128l-2.784-5.76q8.064-5.088 17.376-5.088 6.528 0 10.656 3.36 4.224 3.264 4.224 10.176v31.392h-5.184l-2.4-5.76q-3.072 3.168-7.296 5.088-4.224 1.824-7.68 1.824-5.952 0-9.504-3.264-3.552-3.264-3.552-8.544 0-15.552 27.456-15.552zm-15.936 9.312q-1.824 1.632-2.496 2.976-.576 1.248-.576 3.36 0 2.016 1.728 3.552 1.824 1.44 4.704 1.44 6.048 0 12.576-5.376v-9.6q-12.096.192-15.936 3.648zm-32.876-41.184q-6.72-2.304-12.48-2.304-5.76 0-9.408 2.976-3.648 2.976-3.648 7.2 0 6.048 6.432 9.504l13.536 7.488q11.328 6.336 11.328 16.32 0 8.256-5.856 13.152-5.856 4.896-16.512 4.896t-19.104-3.84l2.4-6.72q7.872 3.456 15.456 3.456 7.68 0 11.328-2.976 3.648-2.976 3.648-7.2 0-6.048-6.432-9.504l-13.536-7.488q-11.328-6.336-11.328-16.32 0-8.256 5.856-13.152 5.856-4.896 15.744-4.896 6.72 0 15.072 2.784z"
            style="line-height:1;-inkscape-font-specification:&quot;Average Sans, Normal&quot;;text-align:center"
            transform="translate(-580.516 -810.816) scale(1.4867)"/>
  </g>
    <path fill="#f7c708"
          d="M506.923 19.747a25.725 25.725 0 0 0-8.31.077 18.815 18.815 0 0 0-13.561-9.762 18.807 18.807 0 0 0-15.98 4.897 20.558 20.558 0 0 0-4.888 6.203 5.566 5.566 0 0 1-1.969 2.183 21.459 21.459 0 0 1-3.459 1.471 73.044 73.044 0 0 0-8.732 4.074c-8.766 4.773-16.97 10.467-25.26 15.998a45.173 45.173 0 0 1-7.576 4.193c-.19.085-.457.19-.433.447.057.338.415.486.677.647v.006a12.011 12.011 0 0 0 5.112.99 4.125 4.125 0 0 1-1.405 1.72 27.258 27.258 0 0 1-3.54 1.911c-6.194 3.016-12.27 6.265-18.262 9.657a49.236 49.236 0 0 0-5.757 3.592 4.533 4.533 0 0 0-1.89 2.598.815.815 0 0 0 .162.656.816.816 0 0 0 .595.315 6.432 6.432 0 0 0 3.382-.787 66.678 66.678 0 0 0 5.837-3.487 6.598 6.598 0 0 1 1.138-.072 22.399 22.399 0 0 0-6.193 5.155 4.293 4.293 0 0 0-.948 2.354.997.997 0 0 0 1.043.877 7.989 7.989 0 0 0 3.201-.714 78.523 78.523 0 0 0 10.03-5.746 122.99 122.99 0 0 1 7.561-4.193 50.298 50.298 0 0 1 7.025-3.025 9.91 9.91 0 0 1 4.785-.53 5.605 5.605 0 0 1 2.315 1.253 72.644 72.644 0 0 0 6.613 4.589 61.783 61.783 0 0 0 7.061 3.806c.171.072.324.177.442.315a1587.07 1587.07 0 0 0 8.9 11.248c1.139 1.443 2.334 2.84 3.454 4.297h.01a1.085 1.085 0 0 1-.354 1.592 32.028 32.028 0 0 0-2.466 1.67 6.069 6.069 0 0 0-2.192 2.522 1.293 1.293 0 0 0 .147 1.349c.343.375.91.29 1.363.228h.01a13.111 13.111 0 0 0 3.716-1.715 25.827 25.827 0 0 0 2.75-1.897 1.772 1.772 0 0 1 1.714-.357 107.08 107.08 0 0 0 12.687 3.33 8.143 8.143 0 0 0 1.615.129c.324-.08.105-.433.049-.634h-.01a7.417 7.417 0 0 0-3.297-3.386 26.917 26.917 0 0 0-3.844-1.32 1.68 1.68 0 0 1 1.762-.72c2.587.768 5.155 1.606 7.762 2.31a28.259 28.259 0 0 0 4.53 1c.357.063.362-.422.252-.642a6.488 6.488 0 0 0-2.44-2.901 11.967 11.967 0 0 0-3.024-1.238 835.742 835.742 0 0 1-7.59-2.54 17.026 17.026 0 0 1-1.767-1.863 740.76 740.76 0 0 0-7.118-7.866 46.446 46.446 0 0 0 10.462-2.177 32.196 32.196 0 0 0 6.66-3.224 33.384 33.384 0 0 0 15.084-23.198c.39-2.878.476-5.785.262-8.676a19.275 19.275 0 0 1 .095-3.887 11.874 11.874 0 0 1 3.254-6.68 13.409 13.409 0 0 1 5.55-3.254 33.78 33.78 0 0 1 7.956-1.505 11.152 11.152 0 0 0-4.749-1.664zM466.6 84.064c.21.233.305.552.256.862a1.05 1.05 0 0 1-.494.752 9.281 9.281 0 0 1-1.83 1.102c-.644-.244-1.406-.34-1.824-.944-3.55-4.121-7.133-8.213-10.672-12.34a38.04 38.04 0 0 0 5.455.582c3.04 3.325 6.028 6.694 9.105 9.986zm24.112-63.089a2.073 2.073 0 0 1-.648 1.458 2.061 2.061 0 0 1-2.94-.095 2.061 2.061 0 0 1-.548-1.5 2.014 2.014 0 0 1 1.378-1.921 2.108 2.108 0 0 1 1.91.31c.548.41.866 1.062.848 1.748z"/>
</svg>
